<?xml version="1.0" encoding="UTF-8" standalone="no"?>
<svg
   xmlns:dc="http://purl.org/dc/elements/1.1/"
   xmlns:cc="http://creativecommons.org/ns#"
   xmlns:rdf="http://www.w3.org/1999/02/22-rdf-syntax-ns#"
   xmlns:svg="http://www.w3.org/2000/svg"
   xmlns="http://www.w3.org/2000/svg"
   xmlns:sodipodi="http://sodipodi.sourceforge.net/DTD/sodipodi-0.dtd"
   xmlns:inkscape="http://www.inkscape.org/namespaces/inkscape"
   width="50px"
   height="50px"
   viewBox="0 0 50 50"
   version="1.1"
   id="svg9"
   sodipodi:docname="wd-shop-dm.svg"
   inkscape:version="1.0.2 (e86c870879, 2021-01-15, custom)">
  <metadata
     id="metadata15">
    <rdf:RDF>
      <cc:Work
         rdf:about="">
        <dc:format>image/svg+xml</dc:format>
        <dc:type
           rdf:resource="http://purl.org/dc/dcmitype/StillImage" />
        <dc:title>Shop DM</dc:title>
      </cc:Work>
    </rdf:RDF>
  </metadata>
  <defs
     id="defs13" />
  <sodipodi:namedview
     pagecolor="#ffffff"
     bordercolor="#666666"
     borderopacity="1"
     objecttolerance="10"
     gridtolerance="10"
     guidetolerance="10"
     inkscape:pageopacity="0"
     inkscape:pageshadow="2"
     inkscape:window-width="1920"
     inkscape:window-height="1017"
     id="namedview11"
     showgrid="false"
     inkscape:zoom="12.020815"
     inkscape:cx="2.0183107"
     inkscape:cy="18.752509"
     inkscape:window-x="-8"
     inkscape:window-y="-8"
     inkscape:window-maximized="1"
     inkscape:current-layer="svg9" />
  <title
     id="title2">Shop DM</title>
  <g
     id="Wallet---Activity-(Bitcoin)-"
     fill="#02fe45"
     transform="translate(-301,-277)">
    <rect
       id="Rectangle"
       opacity="0.2"
       x="301"
       y="277"
       width="50"
       height="50"
       rx="12" />
    <path
       d="m 315.05662,293.28125 c -0.39934,0 -0.74162,-0.34229 -0.74162,-0.76063 0,-0.39934 0.34228,-0.74162 0.74162,-0.74162 h 1.93961 c 0.019,0 0.0571,0 0.0761,0 0.68457,0.019 1.29308,0.15213 1.80651,0.4754 0.57047,0.3613 0.98882,0.91275 1.21701,1.73043 0,0.019 0,0.038 0.019,0.0571 l 0.19016,0.76063 h 16.63884 c 0.41835,0 0.74162,0.34229 0.74162,0.74162 0,0.0761 -0.019,0.15213 -0.038,0.22819 l -1.93962,7.8155 c -0.0761,0.34229 -0.38032,0.57047 -0.7226,0.57047 v 0 h -12.17012 c 0.26622,0.98883 0.53244,1.52127 0.89374,1.76848 0.43737,0.28523 1.198,0.30425 2.47206,0.28523 h 0.019 v 0 h 8.59515 c 0.41835,0 0.74162,0.34229 0.74162,0.74162 0,0.41835 -0.34229,0.74162 -0.74162,0.74162 h -8.59515 v 0 c -1.57831,0.019 -2.54812,-0.019 -3.32776,-0.53245 -0.79867,-0.53244 -1.21702,-1.4452 -1.63536,-3.09957 v 0 l -2.54812,-9.64102 c 0,-0.019 0,-0.019 -0.019,-0.038 -0.11409,-0.41835 -0.30425,-0.70359 -0.57047,-0.85572 -0.26622,-0.17114 -0.62752,-0.2472 -1.04587,-0.2472 -0.019,0 -0.038,0 -0.0571,0 z m 17.51356,15.28871 c 1.00784,0 1.82552,0.81768 1.82552,1.82552 0,1.00784 -0.81768,1.82552 -1.82552,1.82552 -1.00784,0 -1.82552,-0.81768 -1.82552,-1.82552 0,-1.00784 0.81768,-1.82552 1.82552,-1.82552 z m -8.00566,0 c 1.00784,0 1.82552,0.81768 1.82552,1.82552 0,1.00784 -0.81768,1.82552 -1.82552,1.82552 -1.00783,0 -1.82551,-0.81768 -1.82551,-1.82552 0,-1.00784 0.81768,-1.82552 1.82551,-1.82552 z m -3.84119,-12.28421 1.69241,6.3703 h 11.99898 l 1.57831,-6.3703 z"
       id="ShopPath"
       fill-rule="nonzero"
       style="stroke-width:0.190158" />
  </g>
</svg>
