<?xml version="1.0" encoding="UTF-8" standalone="no"?>
<svg
   xmlns:dc="http://purl.org/dc/elements/1.1/"
   xmlns:cc="http://creativecommons.org/ns#"
   xmlns:rdf="http://www.w3.org/1999/02/22-rdf-syntax-ns#"
   xmlns:svg="http://www.w3.org/2000/svg"
   xmlns="http://www.w3.org/2000/svg"
   xmlns:sodipodi="http://sodipodi.sourceforge.net/DTD/sodipodi-0.dtd"
   xmlns:inkscape="http://www.inkscape.org/namespaces/inkscape"
   width="24px"
   height="17px"
   viewBox="0 0 24 17"
   version="1.1"
   id="svg17"
   sodipodi:docname="ico-activity.svg"
   inkscape:version="1.0.2 (e86c870879, 2021-01-15, custom)">
  <metadata
     id="metadata21">
    <rdf:RDF>
      <cc:Work
         rdf:about="">
        <dc:format>image/svg+xml</dc:format>
        <dc:type
           rdf:resource="http://purl.org/dc/dcmitype/StillImage" />
        <dc:title>Icons/Tabs/Scan</dc:title>
      </cc:Work>
    </rdf:RDF>
  </metadata>
  <sodipodi:namedview
     pagecolor="#ffffff"
     bordercolor="#666666"
     borderopacity="1"
     objecttolerance="10"
     gridtolerance="10"
     guidetolerance="10"
     inkscape:pageopacity="0"
     inkscape:pageshadow="2"
     inkscape:window-width="1920"
     inkscape:window-height="1017"
     id="namedview19"
     showgrid="false"
     inkscape:zoom="21.104167"
     inkscape:cx="11.516305"
     inkscape:cy="11.92981"
     inkscape:window-x="-8"
     inkscape:window-y="-8"
     inkscape:window-maximized="1"
     inkscape:current-layer="svg17" />
  <!-- Generator: Sketch 50.2 (55047) - http://www.bohemiancoding.com/sketch -->
  <title
     id="title2">Icons/Tabs/Scan</title>
  <desc
     id="desc4">Created with Sketch.</desc>
  <defs
     id="defs6" />
  <g
     id="Symbols"
     stroke="none"
     stroke-width="1"
     fill="none"
     fill-rule="evenodd"
     style="fill:#8f92a1;fill-opacity:1">
    <g
       id="Tabs/Wallet/Receive"
       transform="translate(-176.000000, -23.000000)"
       fill="#8F92A1">
      <g
         id="Icons/Tabs/Activity-"
         transform="translate(173.000000, 17.000000)">
        <g
           id="menu-left"
           transform="translate(3.000000, 6.766667)">
          <path
             d="M23,8.7 L1,8.7 C0.448,8.7 0,8.2679 0,7.73333333 C0,7.19876667 0.448,6.76666667 1,6.76666667 L23,6.76666667 C23.552,6.76666667 24,7.19876667 24,7.73333333 C24,8.2679 23.552,8.7 23,8.7 Z"
             id="Shape"
             fill-rule="nonzero"/>
          <path
             d="M23,1.93333333 L1,1.93333333 C0.448,1.93333333 0,1.50123333 0,0.966666667 C0,0.4321 0.448,0 1,0 L23,0 C23.552,0 24,0.4321 24,0.966666667 C24,1.50123333 23.552,1.93333333 23,1.93333333 Z"
             id="path9"
             fill-rule="nonzero"/>
          <path
             d="M17,15.4666667 L6,15.4666667 C5.448,15.4666667 5,15.0345667 5,14.5 C5,13.9654333 5.448,13.5333333 6,13.5333333 L17,13.5333333 C17.552,13.5333333 18,13.9654333 18,14.5 C18,15.0345667 17.552,15.4666667 17,15.4666667 Z"
             id="path11"
             fill-rule="nonzero"/>
        </g>
      </g>
    </g>
  </g>
</svg>
