<?xml version="1.0" encoding="UTF-8" standalone="no"?>
<svg
   xmlns:dc="http://purl.org/dc/elements/1.1/"
   xmlns:cc="http://creativecommons.org/ns#"
   xmlns:rdf="http://www.w3.org/1999/02/22-rdf-syntax-ns#"
   xmlns:svg="http://www.w3.org/2000/svg"
   xmlns="http://www.w3.org/2000/svg"
   xmlns:sodipodi="http://sodipodi.sourceforge.net/DTD/sodipodi-0.dtd"
   xmlns:inkscape="http://www.inkscape.org/namespaces/inkscape"
   width="28"
   height="22"
   viewBox="0 0 28 22"
   fill="none"
   version="1.1"
   id="svg4"
   sodipodi:docname="tab-cards.svg"
   inkscape:version="1.0.2 (e86c870879, 2021-01-15, custom)">
  <metadata
     id="metadata10">
    <rdf:RDF>
      <cc:Work
         rdf:about="">
        <dc:format>image/svg+xml</dc:format>
        <dc:type
           rdf:resource="http://purl.org/dc/dcmitype/StillImage" />
        <dc:title></dc:title>
      </cc:Work>
    </rdf:RDF>
  </metadata>
  <defs
     id="defs8" />
  <sodipodi:namedview
     pagecolor="#ff00ff"
     bordercolor="#666666"
     borderopacity="1"
     objecttolerance="10"
     gridtolerance="10"
     guidetolerance="10"
     inkscape:pageopacity="0"
     inkscape:pageshadow="2"
     inkscape:window-width="1920"
     inkscape:window-height="1017"
     id="namedview6"
     showgrid="false"
     inkscape:zoom="19.388426"
     inkscape:cx="14"
     inkscape:cy="11"
     inkscape:window-x="1912"
     inkscape:window-y="-8"
     inkscape:window-maximized="1"
     inkscape:current-layer="svg4" />
  <path
     d="M25.6618 0H2.33819C1.04514 0 0 1.0498 0 2.34375V19.5312C0 20.8252 1.04514 21.875 2.33819 21.875H25.6618C26.9549 21.875 28 20.8252 28 19.5312V2.34375C28 1.0498 26.9549 0 25.6618 0ZM2.62986 2.34375H25.3701C25.5306 2.34375 25.6618 2.47559 25.6618 2.63672V4.6875H2.33819V2.63672C2.33819 2.47559 2.46944 2.34375 2.62986 2.34375ZM25.3701 19.5312H2.62986C2.46944 19.5312 2.33819 19.3994 2.33819 19.2383V10.9375H25.6618V19.2383C25.6618 19.3994 25.5306 19.5312 25.3701 19.5312ZM9.33333 14.6484V16.6016C9.33333 16.9238 9.07083 17.1875 8.75 17.1875H5.25C4.92917 17.1875 4.66667 16.9238 4.66667 16.6016V14.6484C4.66667 14.3262 4.92917 14.0625 5.25 14.0625H8.75C9.07083 14.0625 9.33333 14.3262 9.33333 14.6484ZM18.6667 14.6484V16.6016C18.6667 16.9238 18.4042 17.1875 18.0833 17.1875H11.4722C11.1514 17.1875 10.8889 16.9238 10.8889 16.6016V14.6484C10.8889 14.3262 11.1514 14.0625 11.4722 14.0625H18.0833C18.4042 14.0625 18.6667 14.3262 18.6667 14.6484Z"
     fill="#8f92a1"
     id="path2" />
</svg>
