<?xml version="1.0" encoding="UTF-8" standalone="no"?>
<svg
   xmlns:dc="http://purl.org/dc/elements/1.1/"
   xmlns:cc="http://creativecommons.org/ns#"
   xmlns:rdf="http://www.w3.org/1999/02/22-rdf-syntax-ns#"
   xmlns:svg="http://www.w3.org/2000/svg"
   xmlns="http://www.w3.org/2000/svg"
   xmlns:sodipodi="http://sodipodi.sourceforge.net/DTD/sodipodi-0.dtd"
   xmlns:inkscape="http://www.inkscape.org/namespaces/inkscape"
   width="22"
   height="23"
   viewBox="0 0 22 23"
   fill="none"
   version="1.1"
   id="svg6"
   sodipodi:docname="tab-settings.svg"
   inkscape:version="1.0.2 (e86c870879, 2021-01-15, custom)">
  <metadata
     id="metadata12">
    <rdf:RDF>
      <cc:Work
         rdf:about="">
        <dc:format>image/svg+xml</dc:format>
        <dc:type
           rdf:resource="http://purl.org/dc/dcmitype/StillImage" />
        <dc:title></dc:title>
      </cc:Work>
    </rdf:RDF>
  </metadata>
  <defs
     id="defs10" />
  <sodipodi:namedview
     pagecolor="#ff00ff"
     bordercolor="#666666"
     borderopacity="1"
     objecttolerance="10"
     gridtolerance="10"
     guidetolerance="10"
     inkscape:pageopacity="0"
     inkscape:pageshadow="2"
     inkscape:window-width="1920"
     inkscape:window-height="1017"
     id="namedview8"
     showgrid="false"
     inkscape:zoom="36.956522"
     inkscape:cx="11"
     inkscape:cy="12.389479"
     inkscape:window-x="1912"
     inkscape:window-y="-8"
     inkscape:window-maximized="1"
     inkscape:current-layer="svg6" />
  <path
     d="M19.8978 11.9129V11.2978V10.6747L21.4517 9.31509C21.7381 9.06263 21.926 8.71705 21.9823 8.33942C22.0386 7.96179 21.9596 7.57642 21.7592 7.25143L19.8493 4.01432C19.7074 3.76851 19.5033 3.56434 19.2576 3.4223C19.0118 3.28025 18.7331 3.20533 18.4492 3.20504C18.2733 3.20369 18.0984 3.23102 17.9313 3.28597L15.9648 3.94957C15.6252 3.72395 15.2711 3.52118 14.9046 3.34262L14.4919 1.30323C14.4179 0.930647 14.2152 0.595959 13.9193 0.357757C13.6234 0.119556 13.2531 -0.00698098 12.8733 0.000297354H9.0859C8.7061 -0.00698098 8.33584 0.119556 8.03994 0.357757C7.74404 0.595959 7.54135 0.930647 7.46734 1.30323L7.05461 3.34262C6.68553 3.52114 6.32866 3.7239 5.98636 3.94957L4.06028 3.25359C3.89138 3.20959 3.71648 3.19319 3.54234 3.20504C3.25851 3.20533 2.97974 3.28025 2.73401 3.4223C2.48827 3.56434 2.28421 3.76851 2.14229 4.01432L0.232398 7.25143C0.0435016 7.57594 -0.0266914 7.95603 0.0338406 8.3266C0.0943727 8.69718 0.281863 9.03518 0.564201 9.28271L2.09374 10.6828V11.921L0.564201 13.2805C0.273888 13.5298 0.0812693 13.8739 0.0205275 14.2516C-0.0402143 14.6294 0.0348495 15.0165 0.232398 15.3442L2.14229 18.5813C2.28421 18.8271 2.48827 19.0313 2.73401 19.1733C2.97974 19.3154 3.25851 19.3903 3.54234 19.3906C3.71824 19.3919 3.89318 19.3646 4.06028 19.3097L6.02683 18.6461C6.36635 18.8717 6.72052 19.0744 7.08698 19.253L7.49971 21.2924C7.57372 21.665 7.77641 21.9997 8.07231 22.2379C8.36822 22.4761 8.73847 22.6026 9.11827 22.5953H12.9381C13.3179 22.6026 13.6881 22.4761 13.984 22.2379C14.2799 21.9997 14.4826 21.665 14.5566 21.2924L14.9693 19.253C15.3384 19.0745 15.6953 18.8717 16.0376 18.6461L17.996 19.3097C18.1631 19.3646 18.3381 19.3919 18.514 19.3906C18.7978 19.3903 19.0766 19.3154 19.3223 19.1733C19.5681 19.0313 19.7721 18.8271 19.914 18.5813L21.7592 15.3442C21.9481 15.0197 22.0183 14.6396 21.9577 14.269C21.8972 13.8985 21.7097 13.5605 21.4274 13.3129L19.8978 11.9129ZM18.4492 17.772L15.6734 16.8333C15.0236 17.3837 14.281 17.8139 13.4803 18.1038L12.9057 21.0091H9.0859L8.51131 18.1362C7.71694 17.8381 6.97831 17.4086 6.32626 16.8656L3.54234 17.772L1.63245 14.5349L3.83368 12.5927C3.68405 11.7549 3.68405 10.8973 3.83368 10.0596L1.63245 8.0607L3.54234 4.82359L6.31817 5.76236C6.96797 5.21196 7.71061 4.78172 8.51131 4.49179L9.0859 1.58648H12.9057L13.4803 4.45942C14.2746 4.75757 15.0133 5.18707 15.6653 5.72998L18.4492 4.82359L20.3591 8.0607L18.1579 10.003C18.3075 10.8407 18.3075 11.6983 18.1579 12.536L20.3591 14.5349L18.4492 17.772Z"
     fill="#8f92a1"
     id="path2" />
  <path
     d="M10.9958 16.1536C10.0354 16.1536 9.09665 15.8688 8.29814 15.3353C7.49963 14.8017 6.87727 14.0434 6.50975 13.1561C6.14224 12.2689 6.04608 11.2925 6.23344 10.3506C6.4208 9.40873 6.88325 8.54353 7.56233 7.86445C8.24141 7.18538 9.1066 6.72292 10.0485 6.53556C10.9904 6.34821 11.9667 6.44436 12.854 6.81188C13.7412 7.17939 14.4996 7.80176 15.0331 8.60027C15.5667 9.39878 15.8515 10.3376 15.8515 11.2979C15.858 11.9374 15.7368 12.5717 15.4951 13.1638C15.2534 13.7558 14.8959 14.2937 14.4438 14.7459C13.9916 15.1981 13.4537 15.5555 12.8616 15.7972C12.2696 16.0389 11.6353 16.1601 10.9958 16.1536V16.1536ZM10.9958 8.06082C10.568 8.05085 10.1426 8.12777 9.74532 8.28692C9.34807 8.44607 8.98723 8.68415 8.68463 8.98675C8.38203 9.28936 8.14395 9.6502 7.9848 10.0474C7.82565 10.4447 7.74873 10.8701 7.75869 11.2979C7.74873 11.7258 7.82565 12.1512 7.9848 12.5484C8.14395 12.9457 8.38203 13.3065 8.68463 13.6091C8.98723 13.9117 9.34807 14.1498 9.74532 14.3089C10.1426 14.4681 10.568 14.545 10.9958 14.535C11.4236 14.545 11.849 14.4681 12.2463 14.3089C12.6435 14.1498 13.0044 13.9117 13.307 13.6091C13.6096 13.3065 13.8477 12.9457 14.0068 12.5484C14.166 12.1512 14.2429 11.7258 14.2329 11.2979C14.2429 10.8701 14.166 10.4447 14.0068 10.0474C13.8477 9.6502 13.6096 9.28936 13.307 8.98675C13.0044 8.68415 12.6435 8.44607 12.2463 8.28692C11.849 8.12777 11.4236 8.05085 10.9958 8.06082Z"
     fill="#8f92a1"
     id="path4" />
</svg>
