<?xml version="1.0" encoding="UTF-8" standalone="no"?>
<svg
   xmlns:dc="http://purl.org/dc/elements/1.1/"
   xmlns:cc="http://creativecommons.org/ns#"
   xmlns:rdf="http://www.w3.org/1999/02/22-rdf-syntax-ns#"
   xmlns:svg="http://www.w3.org/2000/svg"
   xmlns="http://www.w3.org/2000/svg"
   xmlns:sodipodi="http://sodipodi.sourceforge.net/DTD/sodipodi-0.dtd"
   xmlns:inkscape="http://www.inkscape.org/namespaces/inkscape"
   width="24"
   height="24"
   viewBox="0 0 24 24"
   fill="none"
   version="1.1"
   id="svg11"
   sodipodi:docname="tab-wallets.svg"
   inkscape:version="1.0.2 (e86c870879, 2021-01-15, custom)">
  <metadata
     id="metadata17">
    <rdf:RDF>
      <cc:Work
         rdf:about="">
        <dc:format>image/svg+xml</dc:format>
        <dc:type
           rdf:resource="http://purl.org/dc/dcmitype/StillImage" />
        <dc:title></dc:title>
      </cc:Work>
    </rdf:RDF>
  </metadata>
  <defs
     id="defs15" />
  <sodipodi:namedview
     pagecolor="#ff00ff"
     bordercolor="#666666"
     borderopacity="1"
     objecttolerance="10"
     gridtolerance="10"
     guidetolerance="10"
     inkscape:pageopacity="0"
     inkscape:pageshadow="2"
     inkscape:window-width="1920"
     inkscape:window-height="1017"
     id="namedview13"
     showgrid="false"
     inkscape:zoom="35.416667"
     inkscape:cx="12"
     inkscape:cy="12"
     inkscape:window-x="1912"
     inkscape:window-y="-8"
     inkscape:window-maximized="1"
     inkscape:current-layer="svg11" />
  <path
     fill-rule="evenodd"
     clip-rule="evenodd"
     d="M0 2.52632C0 1.13684 1.12421 0 2.52632 0H20.2105C21.6058 0 22.7368 1.13107 22.7368 2.52632V5.40632C23.4821 5.84842 24 6.64421 24 7.57895V15.1579C24 16.0926 23.4821 16.8884 22.7368 17.3305V20.2105C22.7368 21.6058 21.6058 22.7368 20.2105 22.7368H2.52632C1.13107 22.7368 0 21.6058 0 20.2105V2.52632ZM20.2105 2.52631H2.52632V20.2105H20.2105V17.6842H12.6316C11.2363 17.6842 10.1053 16.5531 10.1053 15.1579V7.57894C10.1053 6.18369 11.2363 5.05262 12.6316 5.05262H20.2105V2.52631ZM12.6316 7.57894H21.4737V15.1579H12.6316V7.57894ZM14.5263 11.3684C14.5263 10.322 15.3746 9.47369 16.4211 9.47369C17.4675 9.47369 18.3158 10.322 18.3158 11.3684C18.3158 12.4149 17.4675 13.2632 16.4211 13.2632C15.3746 13.2632 14.5263 12.4149 14.5263 11.3684Z"
     fill="#8f92a1"
     id="path2" />
</svg>
